<?xml version="1.0" encoding="UTF-8" standalone="no"?>
<!DOCTYPE svg PUBLIC "-//W3C//DTD SVG 1.1//EN" "http://www.w3.org/Graphics/SVG/1.1/DTD/svg11.dtd">
<svg width="100%" height="100%" viewBox="0 0 8334 8334" version="1.1" xmlns="http://www.w3.org/2000/svg" xmlns:xlink="http://www.w3.org/1999/xlink" xml:space="preserve" xmlns:serif="http://www.serif.com/" style="fill-rule:evenodd;clip-rule:evenodd;stroke-linejoin:round;stroke-miterlimit:2;">
    <g transform="matrix(4.16667,0,0,4.16667,0,0)">
        <rect x="0" y="0" width="2000" height="2000" style="fill:white;fill-rule:nonzero;"/>
        <path d="M967.975,1548.99C967.031,1548.96 966.088,1548.93 965.144,1548.9C964.026,1557.21 962.908,1565.52 961.662,1574.79L974.872,1574.79C972.362,1565.4 970.168,1557.19 967.975,1548.99ZM1183.2,221.314C1158.22,259.288 1115.47,288.103 1120.75,345.5C1150.68,306.259 1173.1,266.961 1183.2,221.314ZM1104.87,553.032C1078.24,506.881 1051.53,499.635 976.87,506.936C1021.84,523.131 1064.45,538.475 1104.87,553.032ZM813.715,1593.48C828.076,1591.52 841.853,1589.35 855.705,1587.87C863.131,1587.07 865.917,1583.85 867.091,1576.32C873.715,1533.84 881.215,1491.5 888.013,1449.05C898.695,1382.36 907.301,1315.56 899.652,1247.72C897.606,1229.57 883.61,1219.53 876.417,1202.91C855.286,1334.53 834.646,1463.1 813.715,1593.48ZM930.32,430.891C930.697,430.183 931.075,429.475 931.453,428.767C923.995,417.274 916.537,405.782 907.435,391.756C919.64,398.588 928.575,403.589 936.477,408.012C932.255,386.335 928.285,365.953 924.315,345.571C924.903,345.315 925.491,345.059 926.078,344.802C931.571,352.765 937.063,360.728 942.556,368.69C947.106,295.29 939.512,224.697 904.503,156.623C839.593,218.304 811.391,291.081 815.021,376.41C815.471,386.994 820.395,397.389 823.246,407.872C824.121,407.539 824.997,407.206 825.872,406.872C826.91,395.729 827.947,384.586 828.984,373.443C835.308,398.049 842.161,421.512 858.435,444.586C857.011,433.917 855.99,426.26 854.642,416.163C861.981,427.414 867.847,436.408 873.713,445.401C874.295,445.04 874.877,444.678 875.459,444.316C871.551,431.464 867.642,418.611 863.734,405.759C877.624,419.148 887.021,436.884 908.963,442.029C902.677,431.296 897.187,421.922 890.872,411.138C905.654,418.54 917.987,424.716 930.32,430.891ZM634.674,624.156C637.923,614.583 640.914,604.914 644.46,595.453C675.082,513.745 716.446,437.39 760.552,362.385C765.337,354.247 769.42,345.544 772.671,336.678C801.404,258.336 846.064,189.537 898.64,125.445C900.978,122.595 903.711,120.069 907.349,116.248C951.104,163.633 964.488,223.527 980.482,285.463C997.962,278.968 1015.67,275 1030.65,266.329C1074.33,241.051 1116.98,214.003 1159.9,187.411C1175.25,177.894 1190.19,167.699 1205.32,157.814C1206.48,158.311 1207.64,158.807 1208.8,159.304C1205.37,179.854 1203.71,200.894 1198.17,220.858C1184.9,268.657 1170.03,316.016 1155.25,363.38C1153.01,370.559 1153.36,375.133 1158.47,380.974C1178.36,403.723 1185.04,431.942 1189.67,460.801C1191.76,473.877 1193.78,486.974 1195.44,500.11C1199.89,535.26 1220.44,560.118 1247.93,579.581C1273.57,597.737 1300.17,614.606 1326.96,631.039C1335.73,636.422 1337.83,642.563 1333.56,650.394C1327.3,661.888 1318.37,670.629 1304.6,673.587C1275.38,679.865 1248.63,671.617 1222.91,659.486C1185.5,641.833 1149.38,621.252 1111.35,605.104C1016.38,564.776 917.608,548.863 815.039,566.886C779.889,573.062 746.51,585.214 717.334,607.148C748.905,599.68 780.226,590.974 816.366,594.456C769.849,614.304 732.821,642.222 702.876,680.312C750.105,668.056 797.048,660.499 844.578,682.039C840.269,683.708 836.069,685.775 831.636,686.986C747.621,709.951 705.092,768.227 695.784,851.661C684.494,952.865 717.992,1042.39 773.533,1125.13C773.929,1125.72 774.807,1125.98 775.828,1126.63L775.828,1043.49C788.124,1076.59 793.956,1111.78 813.922,1142.28L813.922,1108.15C815.312,1108.07 816.703,1107.99 818.093,1107.91C819.842,1130.35 821.591,1152.8 823.34,1175.25C824.163,1175.78 824.986,1176.31 825.809,1176.84C848.52,1136.93 871.232,1097.03 895.763,1053.92C892.393,1070.28 889.716,1083.28 887.039,1096.27C932.752,1047.27 956.393,986.941 978.014,921.302C979.633,933.367 981.255,941.926 981.81,950.554C982.388,959.559 981.939,968.629 981.939,976.484C993.548,962.034 1004.04,917.288 1001.59,856.977C1011.86,869.181 1016.18,891.607 1019.17,948.28C1027.5,920.358 1020.87,851.398 1006.83,812.766C990.485,767.756 960.777,734.002 919.257,709.115C934.651,686.991 954.415,673.482 978.313,666.115C1018.45,653.74 1058.7,656.821 1098.31,668.305C1132.67,678.268 1166.53,689.943 1200.46,702.041C1182.93,697.821 1165.41,693.585 1147.87,689.382C1121,682.94 1094.23,675.956 1067.17,670.397C1057.78,668.466 1047.65,670.089 1034.72,670.089C1041.18,689.21 1044.97,705.798 1052.16,720.748C1082.1,782.989 1111.72,845.462 1144.43,906.245C1154.85,925.608 1174.09,940.414 1190.01,956.594C1253.16,1020.76 1313.73,1087.1 1363.96,1162.15C1403.38,1221.05 1434.64,1283.64 1448.92,1353.83C1463.28,1424.47 1456.95,1492.98 1429.83,1559.67C1427.86,1564.52 1426.02,1569.43 1422.93,1577.38C1448.6,1553.7 1473.82,1535.31 1504.14,1525.12C1539.22,1513.34 1574.77,1511.23 1610.43,1521.8C1674.04,1540.66 1712.09,1607.34 1700.91,1678.44C1691.02,1741.3 1653.42,1782.36 1598.8,1810.39C1548.89,1836 1495.11,1849.36 1440.39,1859.11C1327.01,1879.31 1212.38,1884.59 1097.56,1883.65C981.588,1882.7 865.563,1880.77 749.7,1875.93C667.03,1872.47 584.588,1863.52 502.055,1856.89C495.986,1856.4 490.001,1854.87 483.977,1853.82C484.013,1852.78 484.049,1851.73 484.085,1850.69L573.325,1850.69C523.025,1832.39 470.668,1831.69 418.85,1825.22C437.688,1823.51 456.503,1821.43 475.373,1820.2C494.798,1818.94 514.273,1818 533.733,1817.85C579.711,1817.49 625.71,1818.47 671.671,1817.49C760.489,1815.6 845.696,1797.07 926.386,1759.23C929.229,1757.89 932.116,1756.66 935.785,1756.46C913.016,1792.78 881.98,1820.3 845.294,1842.47C879.08,1853.75 1032.25,1850.3 1113.22,1835.74C1201.56,1819.85 1287.57,1797.11 1367.44,1753.86L1329.14,1753.86C1377.71,1735.58 1433.28,1731.9 1470.63,1686.37L1425.87,1686.37C1448.06,1674.08 1467.73,1663.18 1487.4,1652.28C1486.8,1650.87 1486.19,1649.47 1485.59,1648.06C1471.8,1649.13 1458.02,1650.41 1444.22,1651.23C1424.38,1652.4 1404.51,1653.06 1384.67,1654.25C1355.21,1656.03 1328.51,1645.58 1301.64,1635.89C1252.99,1618.36 1205.04,1598.47 1153.66,1589.92C1124.32,1585.04 1094.75,1581.5 1064.74,1579.89C1080.83,1584.76 1097.24,1588.76 1112.91,1594.72C1129.47,1601.03 1146.14,1607.84 1161.22,1616.97C1175.76,1625.77 1188.32,1637.82 1200.69,1650.04C1002.47,1577.27 806.632,1593.62 608.44,1659.38C618.144,1654.67 625.411,1650.97 632.823,1647.6C640.348,1644.16 647.931,1640.82 655.64,1637.84C677.242,1629.46 698.828,1621.04 720.624,1613.2C727.571,1610.7 731.094,1607.3 732.605,1599.64C757.034,1475.83 765.399,1351.06 757.148,1225.07C755.311,1197.02 749.69,1171.01 736.466,1145.68C714.298,1103.23 694.721,1059.42 672.63,1016.03C676.237,1045.79 679.844,1075.55 683.517,1105.85C665.436,1067.93 652.434,1029.11 652.927,986.652C651.57,986.309 650.214,985.965 648.858,985.621C642.272,1003.16 635.686,1020.7 628.68,1039.36C621.954,992.596 625.324,947.142 631.865,901.547C616.716,935.635 608.566,971.479 604.291,1008.35C602.981,1008.29 601.671,1008.23 600.361,1008.17C601.522,983.57 601.366,958.819 604.207,934.417C607.166,908.999 612.35,883.773 617.794,858.731C623.151,834.092 629.151,809.514 636.534,785.418C643.861,761.5 653.262,738.218 660.419,713.747C648.319,731.681 636.219,749.614 624.12,767.547C623.446,767.526 622.772,767.506 622.098,767.485C625.892,749.082 629.27,730.581 633.596,712.304C637.977,693.797 642.957,675.413 648.299,657.158C653.756,638.51 659.764,620.013 665.917,601.58C671.901,583.65 678.376,565.883 684.636,548.045C683.672,547.514 682.708,546.982 681.743,546.45C666.329,572.386 650.914,598.321 635.499,624.257C635.224,624.223 634.949,624.189 634.674,624.156Z" style="fill:rgb(35,31,32);fill-rule:nonzero;"/>
        <path d="M583.906,1730.44C527.394,1768.38 370.634,1827.53 297.15,1838.86C392.22,1795.69 485.9,1757.54 583.906,1730.44Z" style="fill:rgb(35,31,32);fill-rule:nonzero;"/>
        <path d="M709.62,1667.05C688.173,1668.4 665.802,1666.38 645.504,1671.93C617.903,1679.48 591.222,1691.45 565.354,1704.02C531.896,1720.27 499.632,1738.97 466.845,1756.61C464.832,1757.69 462.741,1758.63 459.685,1757.87C477.388,1746.14 494.931,1734.15 512.833,1722.73C537.247,1707.15 562.009,1692.12 586.484,1676.63C607.857,1663.11 630.68,1656.6 656.151,1659.99C674.109,1662.37 692.183,1663.9 710.205,1665.8C710.01,1666.22 709.815,1666.64 709.62,1667.05Z" style="fill:rgb(35,31,32);fill-rule:nonzero;"/>
    </g>
</svg>
